<svg xmlns="http://www.w3.org/2000/svg" viewBox="0 0 148.3 59.29"><defs><style>.cls-1{fill:#f7cd1c;}</style></defs><title>Asset 2</title><g id="Layer_2" data-name="Layer 2"><g id="Layer_1-2" data-name="Layer 1"><rect class="cls-1" width="5.85" height="5.85"/><rect class="cls-1" x="7.63" width="5.85" height="5.85"/><rect class="cls-1" x="15.27" width="5.85" height="5.85"/><rect class="cls-1" x="22.9" width="5.85" height="5.85"/><rect class="cls-1" x="30.53" width="5.85" height="5.85"/><rect class="cls-1" x="38.17" width="5.85" height="5.85"/><rect class="cls-1" x="45.8" width="5.85" height="5.85"/><rect class="cls-1" x="53.43" width="5.85" height="5.85"/><rect class="cls-1" y="7.63" width="5.85" height="5.85"/><rect class="cls-1" x="7.63" y="7.63" width="5.85" height="5.85"/><rect class="cls-1" x="15.27" y="7.63" width="5.85" height="5.85"/><rect class="cls-1" x="22.9" y="7.63" width="5.85" height="5.85"/><rect class="cls-1" x="30.53" y="7.63" width="5.85" height="5.85"/><rect class="cls-1" x="38.17" y="7.63" width="5.85" height="5.85"/><rect class="cls-1" x="45.8" y="7.63" width="5.85" height="5.85"/><rect class="cls-1" x="53.43" y="7.63" width="5.85" height="5.85"/><rect class="cls-1" y="15.27" width="5.85" height="5.85"/><rect class="cls-1" x="7.63" y="15.27" width="5.85" height="5.85"/><rect class="cls-1" x="15.27" y="15.27" width="5.85" height="5.85"/><rect class="cls-1" x="22.9" y="15.27" width="5.85" height="5.85"/><rect class="cls-1" x="30.53" y="15.27" width="5.85" height="5.85"/><rect class="cls-1" x="38.17" y="15.27" width="5.85" height="5.85"/><rect class="cls-1" x="45.8" y="15.27" width="5.85" height="5.85"/><rect class="cls-1" x="53.43" y="15.27" width="5.85" height="5.85"/><rect class="cls-1" y="22.9" width="5.85" height="5.85"/><rect class="cls-1" x="7.63" y="22.9" width="5.85" height="5.85"/><rect class="cls-1" x="15.27" y="22.9" width="5.85" height="5.85"/><rect class="cls-1" x="22.9" y="22.9" width="5.85" height="5.85"/><rect class="cls-1" x="30.53" y="22.9" width="5.85" height="5.85"/><rect class="cls-1" x="38.17" y="22.9" width="5.85" height="5.85"/><rect class="cls-1" x="45.8" y="22.9" width="5.85" height="5.85"/><rect class="cls-1" x="53.43" y="22.9" width="5.85" height="5.85"/><rect class="cls-1" y="30.53" width="5.85" height="5.85"/><rect class="cls-1" x="7.63" y="30.53" width="5.85" height="5.85"/><rect class="cls-1" x="15.27" y="30.53" width="5.85" height="5.85"/><rect class="cls-1" x="22.9" y="30.53" width="5.85" height="5.85"/><rect class="cls-1" x="30.53" y="30.53" width="5.85" height="5.85"/><rect class="cls-1" x="38.17" y="30.53" width="5.85" height="5.85"/><rect class="cls-1" x="45.8" y="30.53" width="5.85" height="5.85"/><rect class="cls-1" x="53.43" y="30.53" width="5.85" height="5.85"/><rect class="cls-1" y="38.17" width="5.85" height="5.85"/><rect class="cls-1" x="7.63" y="38.17" width="5.85" height="5.85"/><rect class="cls-1" x="15.27" y="38.17" width="5.85" height="5.85"/><rect class="cls-1" x="22.9" y="38.17" width="5.85" height="5.85"/><rect class="cls-1" x="30.53" y="38.17" width="5.85" height="5.85"/><rect class="cls-1" x="38.17" y="38.17" width="5.85" height="5.85"/><rect class="cls-1" x="45.8" y="38.17" width="5.85" height="5.85"/><rect class="cls-1" x="53.43" y="38.17" width="5.85" height="5.85"/><rect class="cls-1" y="45.8" width="5.85" height="5.85"/><rect class="cls-1" x="7.63" y="45.8" width="5.85" height="5.85"/><rect class="cls-1" x="15.27" y="45.8" width="5.85" height="5.85"/><rect class="cls-1" x="22.9" y="45.8" width="5.85" height="5.85"/><rect class="cls-1" x="30.53" y="45.8" width="5.85" height="5.85"/><rect class="cls-1" x="38.17" y="45.8" width="5.85" height="5.85"/><rect class="cls-1" x="45.8" y="45.8" width="5.85" height="5.85"/><rect class="cls-1" x="53.43" y="45.8" width="5.85" height="5.85"/><rect class="cls-1" y="53.43" width="5.85" height="5.85"/><rect class="cls-1" x="7.63" y="53.43" width="5.85" height="5.85"/><rect class="cls-1" x="15.27" y="53.43" width="5.85" height="5.85"/><rect class="cls-1" x="22.9" y="53.43" width="5.85" height="5.85"/><rect class="cls-1" x="30.53" y="53.43" width="5.85" height="5.85"/><rect class="cls-1" x="38.17" y="53.43" width="5.85" height="5.85"/><rect class="cls-1" x="45.8" y="53.43" width="5.85" height="5.85"/><rect class="cls-1" x="53.43" y="53.43" width="5.85" height="5.85"/><path d="M67.71,50.74a1.89,1.89,0,0,0,2.07,1.36c1.12,0,1.53-.4,1.53-1.06s-.47-1-2-1.36c-3.56-.88-4.15-2-4.15-3.53s1.14-3.31,4.44-3.31S74,44.65,74.1,46.13H71.22c-.1-.4-.37-1.17-1.79-1.17-1,0-1.33.45-1.33.94s.34.81,2.12,1.22c3.65.85,4.16,2.1,4.16,3.7,0,1.81-1.38,3.46-4.71,3.46s-4.69-1.6-4.93-3.54Z"/><path d="M85.87,50.85c0,1.06,0,2.2,0,3.18h-3c0-.29-.06-.88-.08-1.26a3.11,3.11,0,0,1-3,1.51c-2.23,0-3.65-1.35-3.65-4.06V43.09h3v6.52c0,1.21.38,2.21,1.69,2.21s2-.74,2-2.91V43.09h3Z"/><path d="M88.6,45.91c0-.95,0-1.88,0-2.82h2.89c0,.27.1.88.12,1.3a3.41,3.41,0,0,1,3-1.55,2.88,2.88,0,0,1,2.82,1.66,3.81,3.81,0,0,1,3.37-1.66c1.91,0,3.47,1.17,3.47,4V54h-3V47.22c0-1-.35-1.95-1.59-1.95S98,46.1,98,47.78V54H95V47.34c0-1.14-.28-2.05-1.58-2.05s-1.81.75-1.81,2.63V54h-3Z"/><path d="M107,38.6h3v5.65a3.43,3.43,0,0,1,3.13-1.41c3,0,4.46,2.46,4.46,5.53s-1.61,5.91-4.75,5.91A3,3,0,0,1,110,53a6.26,6.26,0,0,1-.11,1H107c0-1.19,0-2.39,0-3.58Zm7.55,9.82c0-1.82-.68-3.16-2.31-3.16s-2.35,1.13-2.35,3.36c0,1.84.55,3.26,2.31,3.26C113.74,51.88,114.55,50.49,114.55,48.42Z"/><path d="M121.72,43.09c1.13,3.78,2.11,7.14,2.28,8.15h0c.23-1.1.87-3.55,2.18-8.15h3l-3.67,11.26c-1,3.14-1.92,4.08-4.55,4.08-.27,0-.89,0-1.42-.08V55.92c.21,0,.54,0,.79,0a1.91,1.91,0,0,0,2.08-1.6l-4-11.27Z"/><path d="M130.11,43.09h1.69v-3h3v3H137v2.28h-2.15v5.4c0,.83.26,1.15,1.16,1.15a5.79,5.79,0,0,0,.69,0V54a7,7,0,0,1-2,.21c-2.14,0-2.84-1.14-2.84-3.06V45.37h-1.69Z"/><path d="M141,49.21c0,1.37.69,2.7,2.2,2.7a1.73,1.73,0,0,0,1.91-1.16h3a4.8,4.8,0,0,1-5,3.53c-3.6,0-5.17-2.69-5.17-5.56,0-3.43,1.76-5.88,5.28-5.88,3.75,0,5,2.71,5,5.45a6.63,6.63,0,0,1,0,.92Zm4.23-1.86c0-1.28-.53-2.35-2-2.35s-2,1-2.15,2.35Z"/></g></g></svg>