<svg xmlns="http://www.w3.org/2000/svg" viewBox="0 0 73 94.28"><defs><style>.cls-1{fill:#f7cd1c;}</style></defs><title>Asset 5</title><g id="Layer_2" data-name="Layer 2"><g id="Layer_1-2" data-name="Layer 1"><rect class="cls-1" width="7.21" height="7.21"/><rect class="cls-1" x="9.4" width="7.21" height="7.21"/><rect class="cls-1" x="18.8" width="7.21" height="7.21"/><rect class="cls-1" x="28.2" width="7.21" height="7.21"/><rect class="cls-1" x="37.6" width="7.21" height="7.21"/><rect class="cls-1" x="46.99" width="7.21" height="7.21"/><rect class="cls-1" x="56.39" width="7.21" height="7.21"/><rect class="cls-1" x="65.79" width="7.21" height="7.21"/><rect class="cls-1" y="9.4" width="7.21" height="7.21"/><rect class="cls-1" x="9.4" y="9.4" width="7.21" height="7.21"/><rect class="cls-1" x="18.8" y="9.4" width="7.21" height="7.21"/><rect class="cls-1" x="28.2" y="9.4" width="7.21" height="7.21"/><rect class="cls-1" x="37.6" y="9.4" width="7.21" height="7.21"/><rect class="cls-1" x="46.99" y="9.4" width="7.21" height="7.21"/><rect class="cls-1" x="56.39" y="9.4" width="7.21" height="7.21"/><rect class="cls-1" x="65.79" y="9.4" width="7.21" height="7.21"/><rect class="cls-1" y="18.8" width="7.21" height="7.21"/><rect class="cls-1" x="9.4" y="18.8" width="7.21" height="7.21"/><rect class="cls-1" x="18.8" y="18.8" width="7.21" height="7.21"/><rect class="cls-1" x="28.2" y="18.8" width="7.21" height="7.21"/><rect class="cls-1" x="37.6" y="18.8" width="7.21" height="7.21"/><rect class="cls-1" x="46.99" y="18.8" width="7.21" height="7.21"/><rect class="cls-1" x="56.39" y="18.8" width="7.21" height="7.21"/><rect class="cls-1" x="65.79" y="18.8" width="7.21" height="7.21"/><rect class="cls-1" y="28.2" width="7.21" height="7.21"/><rect class="cls-1" x="9.4" y="28.2" width="7.21" height="7.21"/><rect class="cls-1" x="18.8" y="28.2" width="7.21" height="7.21"/><rect class="cls-1" x="28.2" y="28.2" width="7.21" height="7.21"/><rect class="cls-1" x="37.6" y="28.2" width="7.21" height="7.21"/><rect class="cls-1" x="46.99" y="28.2" width="7.21" height="7.21"/><rect class="cls-1" x="56.39" y="28.2" width="7.21" height="7.21"/><rect class="cls-1" x="65.79" y="28.2" width="7.21" height="7.21"/><rect class="cls-1" y="37.6" width="7.21" height="7.21"/><rect class="cls-1" x="9.4" y="37.6" width="7.21" height="7.21"/><rect class="cls-1" x="18.8" y="37.6" width="7.21" height="7.21"/><rect class="cls-1" x="28.2" y="37.6" width="7.21" height="7.21"/><rect class="cls-1" x="37.6" y="37.6" width="7.21" height="7.21"/><rect class="cls-1" x="46.99" y="37.6" width="7.21" height="7.21"/><rect class="cls-1" x="56.39" y="37.6" width="7.21" height="7.21"/><rect class="cls-1" x="65.79" y="37.6" width="7.21" height="7.21"/><rect class="cls-1" y="46.99" width="7.21" height="7.21"/><rect class="cls-1" x="9.4" y="46.99" width="7.21" height="7.21"/><rect class="cls-1" x="18.8" y="46.99" width="7.21" height="7.21"/><rect class="cls-1" x="28.2" y="46.99" width="7.21" height="7.21"/><rect class="cls-1" x="37.6" y="46.99" width="7.21" height="7.21"/><rect class="cls-1" x="46.99" y="46.99" width="7.21" height="7.21"/><rect class="cls-1" x="56.39" y="46.99" width="7.21" height="7.21"/><rect class="cls-1" x="65.79" y="46.99" width="7.21" height="7.21"/><rect class="cls-1" y="56.39" width="7.21" height="7.21"/><rect class="cls-1" x="9.4" y="56.39" width="7.21" height="7.21"/><rect class="cls-1" x="18.8" y="56.39" width="7.21" height="7.21"/><rect class="cls-1" x="28.2" y="56.39" width="7.21" height="7.21"/><rect class="cls-1" x="37.6" y="56.39" width="7.21" height="7.21"/><rect class="cls-1" x="46.99" y="56.39" width="7.21" height="7.21"/><rect class="cls-1" x="56.39" y="56.39" width="7.21" height="7.21"/><rect class="cls-1" x="65.79" y="56.39" width="7.21" height="7.21"/><rect class="cls-1" y="65.79" width="7.21" height="7.21"/><rect class="cls-1" x="9.4" y="65.79" width="7.21" height="7.21"/><rect class="cls-1" x="18.8" y="65.79" width="7.21" height="7.21"/><rect class="cls-1" x="28.2" y="65.79" width="7.21" height="7.21"/><rect class="cls-1" x="37.6" y="65.79" width="7.21" height="7.21"/><rect class="cls-1" x="46.99" y="65.79" width="7.21" height="7.21"/><rect class="cls-1" x="56.39" y="65.79" width="7.21" height="7.21"/><rect class="cls-1" x="65.79" y="65.79" width="7.21" height="7.21"/><path d="M3.51,87.73a1.61,1.61,0,0,0,1.76,1.16c1,0,1.3-.35,1.3-.91s-.4-.83-1.73-1.16c-3-.75-3.54-1.69-3.54-3S2.27,81,5.08,81,8.87,82.54,9,83.8H6.49c-.08-.34-.31-1-1.52-1-.86,0-1.13.38-1.13.8s.29.69,1.8,1c3.11.72,3.55,1.79,3.55,3.16,0,1.54-1.17,3-4,3s-4-1.37-4.2-3Z"/><path d="M19,87.82c0,.9,0,1.88,0,2.71H16.47c0-.25-.06-.75-.07-1.08a2.67,2.67,0,0,1-2.57,1.3c-1.9,0-3.11-1.16-3.11-3.47V81.21H13.3v5.55c0,1,.32,1.88,1.43,1.88S16.4,88,16.4,86.17v-5H19Z"/><path d="M21.3,83.61c0-.8,0-1.6,0-2.4h2.47c0,.23.08.75.1,1.11A2.91,2.91,0,0,1,26.44,81a2.46,2.46,0,0,1,2.4,1.42A3.24,3.24,0,0,1,31.71,81c1.63,0,3,1,3,3.43v6.11H32.15v-5.8c0-.84-.31-1.67-1.36-1.67s-1.53.71-1.53,2.14v5.33H26.73v-5.7c0-1-.24-1.75-1.34-1.75s-1.54.65-1.54,2.24v5.21H21.3Z"/><path d="M37,77.39h2.58V82.2A2.9,2.9,0,0,1,42.22,81c2.54,0,3.8,2.1,3.8,4.71s-1.37,5-4.05,5a2.57,2.57,0,0,1-2.45-1.1,4.63,4.63,0,0,1-.1.88H37c0-1,0-2,0-3Zm6.43,8.36c0-1.55-.58-2.69-2-2.69s-2,1-2,2.86c0,1.57.46,2.77,2,2.77C42.72,88.69,43.41,87.51,43.41,85.75Z"/><path d="M49.51,81.21c1,3.21,1.8,6.08,2,7h0c.2-.94.75-3,1.86-7h2.57L52.78,90.8c-.89,2.68-1.64,3.48-3.88,3.48-.23,0-.76,0-1.2-.07V92.14c.17,0,.45,0,.66,0a1.63,1.63,0,0,0,1.78-1.36l-3.39-9.6Z"/><path d="M56.66,81.21H58.1V78.69h2.58v2.52H62.5v1.94H60.68v4.6c0,.71.21,1,1,1a4.16,4.16,0,0,0,.59,0v1.78a6,6,0,0,1-1.73.17c-1.82,0-2.42-1-2.42-2.6v-4.9H56.66Z"/><path d="M66,86.42c0,1.17.59,2.31,1.87,2.31a1.48,1.48,0,0,0,1.63-1h2.58a4.09,4.09,0,0,1-4.27,3c-3.07,0-4.4-2.3-4.4-4.75,0-2.92,1.5-5,4.49-5,3.2,0,4.29,2.32,4.29,4.65a4.78,4.78,0,0,1,0,.78Zm3.6-1.58c0-1.09-.45-2-1.71-2s-1.73.85-1.83,2Z"/><rect class="cls-1" width="73" height="73"/></g></g></svg>